<svg xmlns="http://www.w3.org/2000/svg" xmlns:xlink="http://www.w3.org/1999/xlink" preserveAspectRatio="xMidYMid" width="15.875" height="15.844" viewBox="0 0 15.875 15.844">
  <defs>
    <style>
      .cls-1 {
        fill: #acacac;
        mix-blend-mode: multiply;
        fill-rule: evenodd;
      }
    </style>
  </defs>
  <path d="M4.792,12.686 L3.202,12.686 L3.202,11.100 L4.792,11.100 L4.792,12.686 ZM7.938,15.857 L-0.010,15.857 L-0.010,15.857 L-0.010,3.965 L-0.010,3.965 L7.938,3.965 L7.938,15.857 ZM6.348,5.550 L1.579,5.550 L1.579,14.271 L6.348,14.271 L6.348,5.550 ZM-0.010,3.172 L1.579,3.172 L1.579,1.586 L14.297,1.586 L14.297,9.514 L8.733,9.514 L8.733,15.857 L13.502,15.857 L13.502,14.271 L10.322,14.271 L10.322,11.100 L15.886,11.100 L15.886,0.001 L-0.010,0.001 L-0.010,3.172 Z" class="cls-1"/>
</svg>
