<svg xmlns="http://www.w3.org/2000/svg" xmlns:xlink="http://www.w3.org/1999/xlink" preserveAspectRatio="xMidYMid" width="16" height="16" viewBox="0 0 16 16">
  <defs>
    <style>
      .cls-1 {
        fill: #cf475b;
        fill-rule: evenodd;
      }
    </style>
  </defs>
  <path d="M-0.000,2.000 L-0.000,13.999 C-0.000,15.104 0.895,15.999 2.000,15.999 L14.000,15.999 C15.105,15.999 16.000,15.104 16.000,13.999 L16.000,2.000 C16.000,0.895 15.105,-0.001 14.000,-0.001 L2.000,-0.001 C0.895,-0.001 -0.000,0.895 -0.000,2.000 ZM13.000,3.999 L11.000,3.999 L11.000,5.999 L13.000,5.999 L13.000,7.999 L11.000,7.999 L11.000,13.999 L9.000,13.999 L9.000,7.999 L7.000,7.999 L7.000,5.999 L9.000,5.999 L9.000,3.999 L9.000,2.999 C9.000,2.447 9.448,2.000 10.000,2.000 L11.000,2.000 L13.000,2.000 L13.000,3.999 Z" class="cls-1"/>
</svg>
