<svg xmlns="http://www.w3.org/2000/svg" xmlns:xlink="http://www.w3.org/1999/xlink" preserveAspectRatio="xMidYMid" width="16" height="16" viewBox="0 0 16 16">
  <defs>
    <style>
      .cls-1 {
        fill: #cf475b;
        fill-rule: evenodd;
      }
    </style>
  </defs>
  <path d="M13.313,-0.001 L2.688,-0.001 C1.210,-0.001 -0.000,1.209 -0.000,2.688 L-0.000,13.313 C-0.000,14.791 1.209,15.999 2.688,15.999 L13.313,15.999 C14.791,15.999 16.000,14.791 16.000,13.313 L16.000,2.688 C16.000,1.209 14.792,-0.001 13.313,-0.001 ZM6.000,12.999 L4.000,12.999 L4.000,5.999 L6.000,5.999 L6.000,12.999 ZM6.000,3.999 L4.000,3.999 L4.000,2.000 L6.000,2.000 L6.000,3.999 ZM13.000,12.999 L11.000,12.999 L11.000,8.999 C11.000,8.448 10.552,7.999 10.000,7.999 C9.448,7.999 9.000,8.448 9.000,8.999 L9.000,12.999 L7.000,12.999 L7.000,5.999 L9.000,5.999 L9.000,7.241 C9.412,6.674 10.043,5.999 10.750,5.999 C11.993,5.999 13.000,7.119 13.000,8.500 L13.000,12.999 Z" class="cls-1"/>
</svg>
