<svg xmlns="http://www.w3.org/2000/svg" xmlns:xlink="http://www.w3.org/1999/xlink" preserveAspectRatio="xMidYMid" width="16" height="13" viewBox="0 0 16 13">
  <defs>
    <style>
      .cls-1 {
        fill: #cf475b;
        fill-rule: evenodd;
      }
    </style>
  </defs>
  <path d="M16.000,1.538 C15.411,1.799 14.779,1.976 14.115,2.055 C14.793,1.650 15.313,1.005 15.557,0.240 C14.923,0.615 14.220,0.888 13.472,1.037 C12.873,0.399 12.021,-0.001 11.076,-0.001 C9.262,-0.001 7.792,1.469 7.792,3.281 C7.792,3.538 7.821,3.789 7.877,4.030 C5.149,3.892 2.730,2.585 1.110,0.599 C0.827,1.084 0.666,1.649 0.666,2.249 C0.666,3.388 1.424,4.392 2.305,4.982 C1.767,4.964 0.997,4.816 0.997,4.570 C0.997,4.584 0.997,4.597 0.997,4.611 C0.997,6.201 1.951,7.528 3.452,7.830 C3.176,7.905 2.797,7.945 2.497,7.945 C2.285,7.945 2.035,7.923 1.834,7.886 C2.252,9.190 3.442,10.138 4.878,10.166 C3.755,11.045 2.328,11.571 0.789,11.571 C0.523,11.571 0.257,11.554 0.000,11.525 C1.454,12.456 3.176,13.000 5.031,13.000 C11.070,13.000 14.371,7.998 14.371,3.660 C14.371,3.517 14.367,3.376 14.361,3.235 C15.002,2.773 15.558,2.194 15.998,1.536 L16.000,1.538 Z" class="cls-1"/>
</svg>
